HIERARCHY
ROOT Hips
{
  OFFSET 0 0 0
  CHANNELS 6 Xposition Yposition Zposition Zrotation Yrotation Xrotation
  JOINT LeftThigh
  {
    OFFSET 8.409438 0 -5.917753
    CHANNELS 3 Zrotation Yrotation Xrotation
    JOINT LeftLeg
    {
      OFFSET 0 0 -42.358652
      CHANNELS 3 Zrotation Yrotation Xrotation
      JOINT LeftFoot
      {
        OFFSET 0 0 -39.357303
        CHANNELS 3 Zrotation Yrotation Xrotation
      }
    }
  }
  JOINT RightThigh
  {
    OFFSET -8.409438 0 -5.917753
    CHANNELS 3 Zrotation Yrotation Xrotation
    JOINT RightLeg
    {
      OFFSET 0 0 -42.358652
      CHANNELS 3 Zrotation Yrotation Xrotation
      JOINT RightFoot
      {
        OFFSET 0 0 -39.357303
        CHANNELS 3 Zrotation Yrotation Xrotation
      }
    }
  }
  JOINT SpineLow
  {
    OFFSET 0 0 4.719101
    CHANNELS 3 Zrotation Yrotation Xrotation
    JOINT SpineMid
    {
      OFFSET 0 0 12.899191
      CHANNELS 3 Zrotation Yrotation Xrotation
      JOINT Chest
      {
        OFFSET 0 0 12.899191
        CHANNELS 3 Zrotation Yrotation Xrotation
        JOINT LeftShoulder
        {
          OFFSET 7.550562 1.41573 9.438202
          CHANNELS 3 Zrotation Yrotation Xrotation
          JOINT LeftArm
          {
            OFFSET 9.155056 0 4.247191
            CHANNELS 3 Zrotation Yrotation Xrotation
            JOINT LeftForearm
            {
              OFFSET 0 0 25.771955
              CHANNELS 3 Zrotation Yrotation Xrotation
              JOINT LeftHand
              {
                OFFSET 0 0 25.197169
                CHANNELS 3 Zrotation Yrotation Xrotation
              }
            }
          }
        }
        JOINT RightShoulder
        {
          OFFSET -7.550562 1.41573 9.438202
          CHANNELS 3 Zrotation Yrotation Xrotation
          JOINT RightArm
          {
            OFFSET -9.155056 0 4.247191
            CHANNELS 3 Zrotation Yrotation Xrotation
            JOINT RightForearm
            {
              OFFSET 0 0 -25.771955
              CHANNELS 3 Zrotation Yrotation Xrotation
              JOINT RightHand
              {
                OFFSET 0 0 -25.197169
                CHANNELS 3 Zrotation Yrotation Xrotation
              }
            }
          }
        }
        JOINT Neck
        {
          OFFSET 0 0 15.101124
          CHANNELS 3 Zrotation Yrotation Xrotation
          JOINT Head
          {
            OFFSET 0 0 11.325843
            CHANNELS 3 Zrotation Yrotation Xrotation
            End Site
            {
              OFFSET 0 0 14.157303
            }
          }
        }
      }
    }
  }
}
MOTION
Frames: 14
Frame Time: 0.0
0.0  101.685394  0.0  -4.281139  21.482253  -101.49211  30.168418  -27.181723  19.422785  -25.192598  -1.818411  10.498717  1.318385  3.525075  1.380919  -19.55141  -1.315508  -24.539635  16.404748  -2.278514  41.870772  6.266486  1.473766  0.150951  -2.559035  -0.579322  2.422573  -7.045684  -1.323663  6.675439  -7.045684  -1.323663  6.67544  -10.643054  23.793777  3.960058  156.61579  66.315149  -147.526077  -38.361277  -31.551395  90.083952  59.126793  -18.871401  7.002299  7.842443  -6.50801  19.207927  91.905414  30.598105  36.122049  -40.168305  23.977482  -98.084894  72.907549  13.420863  6.981072  1.798037  -1.045047  -2.357502  1.344482  -0.790743  -1.765021  
0.0  101.685394  0.0  -4.349762  21.366944  -101.472604  30.032666  -27.07439  19.309208  -25.803197  -1.654928  10.60585  1.902921  3.599335  1.483955  -19.312274  -1.424896  -24.587815  16.309666  -2.217168  41.923103  6.310688  1.466317  0.073256  -2.535698  -0.578882  2.448795  -6.982366  -1.322048  6.746581  -6.982366  -1.322048  6.746581  -10.860057  23.610326  3.866478  156.722889  66.128585  -147.541097  -38.483538  -31.392802  90.33888  59.109315  -18.810841  7.014492  7.744703  -6.561914  19.090624  92.328542  30.473724  36.264886  -40.715248  23.974178  -97.923902  73.069035  13.665127  6.409515  1.629825  -1.106434  -2.485787  1.217854  -0.836478  -1.861348  
0.0  101.685394  0.0  -4.379387  21.290294  -101.384831  29.938169  -26.904304  19.224559  -26.278412  -1.643449  10.608391  2.317747  3.690307  1.569481  -19.095357  -1.547451  -24.721968  16.341844  -2.174694  41.986223  6.250776  1.471055  0.044707  -2.52265  -0.575199  2.46601  -6.946645  -1.311528  6.792963  -6.946645  -1.311528  6.792963  -10.980348  23.504569  3.790171  156.714466  66.005615  -147.638105  -38.592667  -31.275465  90.56114  58.958347  -18.845016  7.096695  7.705595  -6.579623  19.011745  92.28317  30.576321  36.2316  -40.740276  23.955885  -97.955968  73.296233  13.758812  5.997291  1.550998  -1.210533  -2.560574  1.158157  -0.914424  -1.917302  
0.0  101.685394  0.0  -4.421271  21.299092  -101.360712  29.503778  -26.646736  19.050294  -26.253869  -1.584566  10.907932  2.606442  3.782602  1.659121  -18.942095  -1.609444  -24.774662  16.370195  -2.248012  42.018072  6.057594  1.510962  0.023344  -2.519843  -0.567652  2.488359  -6.938556  -1.288886  6.853119  -6.938556  -1.288886  6.853119  -11.164094  23.415343  3.738983  156.729009  65.88108  -147.736066  -38.689473  -31.153902  90.834172  58.99893  -18.795664  7.027308  7.486042  -6.626196  18.850133  92.658565  30.413904  36.341499  -41.066388  24.016197  -97.871962  73.444512  13.962325  5.487958  1.349878  -1.306814  -2.683671  1.006649  -0.986066  -2.009791  
0.0  101.685394  0.0  -4.472636  21.309466  -101.309328  29.178933  -26.423607  18.983122  -26.089532  -1.645634  11.033611  2.679732  3.853077  1.722654  -18.795588  -1.748036  -24.869007  16.401371  -2.221679  42.014603  6.015564  1.533335  0.101614  -2.524783  -0.566544  2.494138  -6.952023  -1.284739  6.86886  -6.952023  -1.284739  6.86886  -11.196996  23.409144  3.778574  156.648406  65.814879  -147.899726  -38.783232  -31.077228  91.036887  58.90249  -18.838037  7.075706  7.455028  -6.638472  18.865971  92.474956  30.512589  36.255691  -41.020022  24.079856  -97.925634  73.55746  14.098056  5.023788  1.261481  -1.417849  -2.703847  0.93981  -1.068998  -2.024866  
0.0  101.685394  0.0  -4.555439  21.315793  -101.290265  28.930162  -26.256232  18.873549  -25.741441  -1.715906  11.225855  2.626994  3.905725  1.772437  -18.606441  -1.879209  -24.915705  16.367062  -2.189786  42.005104  6.003141  1.60305  0.193508  -2.530032  -0.564909  2.502021  -6.96631  -1.2789  6.890294  -6.96631  -1.2789  6.890294  -11.178141  23.436345  3.881906  156.603609  65.726166  -148.004289  -38.816769  -30.936373  91.380119  58.981046  -18.821009  7.010152  7.31551  -6.681592  18.847109  92.481963  30.510204  36.251328  -41.042495  24.101745  -97.974216  73.696738  14.218615  4.607722  1.042547  -1.523002  -2.782777  0.774947  -1.14703  -2.084368  
0.0  101.685394  0.0  -4.649726  21.343372  -101.241333  28.682987  -26.083405  18.75459  -25.431843  -1.810708  11.344713  2.520593  3.949065  1.8228  -18.447829  -2.009475  -25.015365  16.316084  -2.138858  42.004672  5.984483  1.594387  0.24323  -2.54746  -0.574016  2.503873  -7.014896  -1.301705  6.896623  -7.014896  -1.301705  6.896623  -11.129214  23.501287  3.93824  156.508857  65.671927  -148.179325  -38.870088  -30.912728  91.525113  58.894265  -18.876734  7.086698  7.334281  -6.657982  18.935105  92.294997  30.621042  36.157331  -40.945505  24.098225  -98.011707  73.818562  14.320321  4.250258  0.975929  -1.618736  -2.782358  0.724545  -1.218529  -2.08405  
0.0  101.685394  0.0  -4.746595  21.356642  -101.231574  28.568405  -26.009713  18.67771  -25.201761  -1.90407  11.436721  2.49393  4.00756  1.89031  -18.106196  -2.053258  -24.990415  16.328531  -2.212299  42.058054  5.649413  1.581436  0.149048  -2.556186  -0.579678  2.521204  -7.039618  -1.314375  6.944704  -7.039618  -1.314375  6.944703  -11.159797  23.514739  3.93581  156.50187  65.547537  -148.291728  -38.851418  -30.700174  91.865301  58.949884  -18.861658  7.055662  7.231938  -6.654079  18.934177  92.230889  30.679086  36.116304  -40.952604  24.083459  -97.987179  73.932686  14.488661  3.908804  0.779493  -1.716963  -2.876099  0.576509  -1.291427  -2.154727  
0.0  101.685394  0.0  -4.821116  21.407191  -101.171867  28.465143  -25.965652  18.591722  -25.227388  -1.938665  11.403468  2.554427  4.050444  1.941872  -17.933384  -2.129092  -25.084142  16.213241  -2.14142  42.063597  5.635826  1.546056  0.137959  -2.576827  -0.586168  2.529419  -7.096812  -1.329005  6.968193  -7.096813  -1.329005  6.968192  -11.086561  23.555595  3.954854  156.409159  65.467798  -148.422919  -38.882713  -30.6138  91.943574  58.782094  -18.920384  7.258734  7.274662  -6.616007  19.027681  92.068837  30.774247  36.010548  -40.892182  24.093025  -97.981299  74.037789  14.592447  3.665167  0.723104  -1.799071  -2.874803  0.533832  -1.352742  -2.153799  
0.0  101.685394  0.0  -4.879951  21.348723  -101.169713  28.586101  -26.059405  18.579726  -25.229563  -1.916459  11.387824  2.601643  4.060558  1.946197  -17.60032  -2.155741  -25.033852  16.057878  -2.056873  42.016327  5.641836  1.501043  0.096917  -2.56897  -0.589531  2.554087  -7.076149  -1.336351  7.035773  -7.076149  -1.336351  7.035773  -11.158745  23.554639  3.906358  156.396971  65.30171  -148.502783  -38.846952  -30.350317  92.19983  58.807959  -18.872759  7.344309  7.117545  -6.585405  18.999875  92.093974  30.742749  35.962791  -41.061678  24.138205  -97.890671  74.154796  14.803675  3.305128  0.568564  -1.878081  -2.91508  0.417435  -1.411312  -2.184369  
0.0  101.685394  0.0  -4.913888  21.355355  -101.102192  28.670159  -26.136523  18.542572  -25.42173  -1.885163  11.211343  2.69056  4.076086  1.984267  -17.458506  -2.238571  -25.079743  15.989149  -1.962647  41.963909  5.632063  1.474186  0.087436  -2.585128  -0.593082  2.561463  -7.120777  -1.343507  7.056579  -7.120776  -1.343507  7.056579  -11.051988  23.599102  3.917948  156.336914  65.16599  -148.605018  -38.833273  -30.210261  92.235793  58.609166  -18.955861  7.611884  7.2032  -6.531159  19.116495  91.930281  30.797093  35.831948  -41.055593  24.179536  -97.858848  74.312176  14.897198  3.022367  0.533331  -1.931092  -2.857251  0.390939  -1.450851  -2.141051  
0.0  101.685394  0.0  -4.964827  21.253625  -101.138709  28.870863  -26.325488  18.534464  -25.528967  -1.7871  11.125757  2.751839  4.059917  1.986165  -17.238283  -2.203934  -24.965644  15.869388  -1.954494  41.873532  5.534549  1.462049  0.030637  -2.590668  -0.59243  2.577906  -7.136112  -1.339354  7.101491  -7.136112  -1.339354  7.101492  -11.014351  23.619979  3.971106  156.444295  64.984992  -148.601252  -38.787474  -30.002453  92.347135  58.68401  -18.877417  7.63132  7.198652  -6.514698  19.195019  91.927565  30.738305  35.78633  -41.176721  24.23889  -97.795127  74.431584  15.078359  2.566171  0.489061  -1.964833  -2.777882  0.357835  -1.475885  -2.081636  
0.0  101.685394  0.0  -4.974007  21.311073  -101.07982  28.934451  -26.432951  18.526658  -25.63805  -1.743017  10.932088  2.768371  4.065558  2.018213  -17.225922  -2.263944  -24.987439  15.805353  -1.87381  41.822932  5.518714  1.452449  0.031316  -2.609886  -0.592467  2.582533  -7.188661  -1.336874  7.114456  -7.188661  -1.336874  7.114456  -10.909637  23.67425  4.023344  156.39528  64.869422  -148.704905  -38.747666  -29.869522  92.361654  58.483835  -18.923538  7.818025  7.253222  -6.452659  19.32857  91.727743  30.770774  35.643467  -41.203138  24.319425  -97.78826  74.585277  15.202792  2.095723  0.445718  -1.995499  -2.664122  0.32556  -1.498601  -1.996435  
0.0  101.685394  0.0  -5.034959  21.148949  -101.153452  29.136459  -26.641391  18.495983  -25.69156  -1.6799  10.816864  2.768154  4.081548  2.074173  -17.064282  -2.25673  -24.878544  15.687009  -1.857246  41.803888  5.483481  1.432649  -0.031123  -2.604158  -0.59101  2.605324  -7.173252  -1.331037  7.176414  -7.173252  -1.331037  7.176415  -10.862535  23.671474  4.075196  156.317162  64.727924  -148.811545  -38.725248  -29.763116  92.38926  58.592482  -18.79513  7.750048  7.196656  -6.432982  19.365721  91.692412  30.676112  35.604402  -41.364666  24.386355  -97.784194  74.706464  15.446709  1.356808  0.438914  -2.009668  -2.546162  0.320783  -1.509112  -1.907983  
